<?xml version="1.0" encoding="UTF-8"?>
<svg version="1.1" xmlns="http://www.w3.org/2000/svg" width="641" height="382">
<path d="M0 0 C3.48687031 3.14145076 6.85216034 6.36661882 10.15234375 9.703125 C12.57784205 12.10225919 15.08925558 14.33420766 17.66796875 16.56640625 C21.69688396 20.16837672 24.84727338 23.58427048 27.66796875 28.19140625 C27.66796875 28.85140625 27.66796875 29.51140625 27.66796875 30.19140625 C28.65796875 30.52140625 29.64796875 30.85140625 30.66796875 31.19140625 C32.24609375 33.30859375 32.24609375 33.30859375 33.91796875 36.06640625 C34.53285156 37.07058594 35.14773438 38.07476562 35.78125 39.109375 C36.40386719 40.12644531 37.02648437 41.14351563 37.66796875 42.19140625 C38.81323928 43.92094572 39.95906445 45.65011807 41.10546875 47.37890625 C47.40078354 57.27559482 52.78588966 68.11847181 56.66796875 79.19140625 C57.06628906 80.3103125 57.46460938 81.42921875 57.875 82.58203125 C60.59031036 90.54240581 62.46695023 98.54415014 63.98046875 106.81640625 C64.15191406 107.75258789 64.32335937 108.68876953 64.5 109.65332031 C65.29198688 114.21879469 65.87668799 118.53774033 65.66796875 123.19140625 C66.27640625 123.27777344 66.88484375 123.36414063 67.51171875 123.453125 C88.57045359 126.82871632 114.09406687 136.12758597 127.5234375 153.6953125 C128.77136088 155.40855893 128.77136088 155.40855893 131.04296875 157.44140625 C134.30227569 160.85591828 136.97286409 164.54462399 139.69140625 168.3984375 C140.84494538 170.02843845 142.02578908 171.64086349 143.26953125 173.203125 C151.76023639 184.39541814 155.41231334 200.54920235 157.66796875 214.19140625 C157.79816406 214.9596875 157.92835938 215.72796875 158.0625 216.51953125 C161.90900613 244.2143754 155.6936855 274.18854096 139.04296875 296.75390625 C137.60089952 298.57937296 136.1442414 300.39348761 134.66796875 302.19140625 C134.10980469 302.89007813 133.55164063 303.58875 132.9765625 304.30859375 C129.85486352 308.10679668 126.48727937 311.10345298 122.66796875 314.19140625 C121.90484375 314.99578125 121.14171875 315.80015625 120.35546875 316.62890625 C116.77670321 320.04121758 112.84046217 322.5610664 108.66796875 325.19140625 C107.89324219 325.69929688 107.11851562 326.2071875 106.3203125 326.73046875 C88.26940244 338.17738732 68.26104898 340.80659616 47.3369751 340.69934082 C45.3473842 340.7039608 43.35779674 340.71032102 41.36821628 340.7182498 C35.9516614 340.73481496 30.53539153 340.72675561 25.11883616 340.71430492 C19.25787048 340.7052041 13.39695166 340.71924882 7.53599548 340.73022461 C-3.92449026 340.74795961 -15.3848709 340.74419264 -26.84536067 340.73257405 C-36.1616574 340.72352196 -45.47792801 340.72221811 -54.7942276 340.72666931 C-55.45779134 340.72697485 -56.12135508 340.72728039 -56.80502682 340.72759519 C-59.49906745 340.72884067 -62.19310806 340.73011429 -64.88714866 340.73143425 C-90.1195006 340.74364943 -115.35179537 340.73260849 -140.58413849 340.71104666 C-162.97588203 340.69205772 -185.36753458 340.69377252 -207.75927734 340.71289062 C-232.95353472 340.73432996 -258.14774169 340.74279167 -283.34200692 340.73044157 C-286.02970392 340.72915881 -288.71740094 340.72790744 -291.40509796 340.72666931 C-292.06681241 340.726353 -292.72852687 340.72603669 -293.41029327 340.7257108 C-303.38112906 340.72117036 -313.35191604 340.72648938 -323.32274628 340.73658752 C-334.66251167 340.74782021 -346.00216634 340.74474029 -357.34191909 340.72346455 C-363.12395136 340.71297264 -368.90579919 340.70880085 -374.68782997 340.72206116 C-379.98635074 340.73402866 -385.28451707 340.72735071 -390.58300593 340.70615095 C-392.49387174 340.70170345 -394.40476783 340.70390919 -396.31561396 340.7136541 C-410.31744785 340.77955234 -422.64564713 339.16518072 -435.33203125 332.69140625 C-436.31804321 332.19362671 -436.31804321 332.19362671 -437.32397461 331.68579102 C-444.34404184 327.94630216 -450.15875896 322.93047746 -455.92822266 317.50585938 C-457.06369156 316.44266554 -458.2305345 315.41304185 -459.40625 314.39453125 C-463.49058178 310.70054353 -466.5010341 306.28403523 -469.58203125 301.75390625 C-470.00709961 301.13281982 -470.43216797 300.5117334 -470.87011719 299.87182617 C-475.15187751 293.36998845 -477.33758323 286.52619575 -479.45703125 279.06640625 C-479.78960937 277.90882813 -480.1221875 276.75125 -480.46484375 275.55859375 C-485.28333349 256.84896243 -483.29808673 234.63411307 -473.953125 217.69140625 C-466.15709897 205.45568147 -455.41578008 196.02527907 -443.33203125 188.19140625 C-442.73261719 187.79953125 -442.13320313 187.40765625 -441.515625 187.00390625 C-433.88735071 182.63514066 -423.02569694 180.19140625 -414.33203125 180.19140625 C-414.35523438 179.04285156 -414.3784375 177.89429688 -414.40234375 176.7109375 C-414.53722541 167.3331126 -414.30368809 158.40290354 -412.33203125 149.19140625 C-412.19200684 148.49998535 -412.05198242 147.80856445 -411.90771484 147.09619141 C-408.51534278 130.78955561 -401.83758005 114.5157806 -390.33203125 102.19140625 C-389.83638672 101.64564941 -389.34074219 101.09989258 -388.83007812 100.53759766 C-371.89767428 82.04511871 -349.80015395 68.61456525 -324.24853516 66.99609375 C-313.38970113 66.60717864 -302.93761101 66.64266488 -292.33203125 69.19140625 C-292.06165039 68.64427979 -291.79126953 68.09715332 -291.51269531 67.53344727 C-282.18992404 48.8234346 -271.6892093 32.81296839 -257.00634766 17.90087891 C-255.44051819 16.30217113 -253.90467987 14.6800865 -252.375 13.046875 C-188.19634399 -54.58873666 -75.659037 -59.37226249 0 0 Z " fill="#0B354F" transform="translate(482.33203125,41.80859375)"/>
<path d="M0 0 C1.31492432 -0.00169189 2.62984863 -0.00338379 3.98461914 -0.00512695 C49.73716301 0.51770974 90.66875784 21.24660674 122.375 53.375 C130.04224201 61.44112967 136.37282972 70.33929543 142.32177734 79.72216797 C143.21250658 81.11999757 144.12888428 82.50143315 145.05078125 83.87890625 C153.72449188 97.32198876 158.62290708 112.94928324 162.375 128.375 C162.74431641 129.80585938 162.74431641 129.80585938 163.12109375 131.265625 C164.68227948 137.94103984 164.56759109 144.54871564 164.375 151.375 C163.14136719 151.41367187 163.14136719 151.41367187 161.8828125 151.453125 C151.64508638 151.9732866 143.8195745 153.98173381 135.75 160.421875 C133.59576251 163.48187143 133.15459277 166.73190303 132.375 170.375 C132.91914551 170.22877197 133.46329102 170.08254395 134.02392578 169.93188477 C136.51518041 169.26417767 139.0075706 168.60080782 141.5 167.9375 C142.3559375 167.70740234 143.211875 167.47730469 144.09375 167.24023438 C167.08919848 161.13759612 192.17826495 163.63226342 213.07421875 175.37890625 C235.3886336 188.7116095 249.33801571 208.91530578 255.6484375 233.9375 C261.01848074 259.3441562 256.47036479 284.93174104 242.5 306.75 C228.29200157 326.91442853 208.34587426 339.94317223 184.08111572 344.42379761 C176.76680443 345.61318361 169.54313692 345.64185763 162.15136719 345.60205078 C160.66193143 345.60148526 159.17249512 345.60180597 157.68305969 345.60293579 C153.67764964 345.60350481 149.6723617 345.59182431 145.66697979 345.57778788 C141.46697817 345.5652046 137.26697313 345.56410407 133.06695557 345.56173706 C125.13061021 345.55554446 117.19432058 345.53916399 109.25799966 345.51903808 C100.21557963 345.4966096 91.17315681 345.48566825 82.13071585 345.47564721 C63.54544575 345.45479557 44.96022737 345.4196632 26.375 345.375 C31.96525397 327.7045158 47.55800324 314.12362487 63.375 305.375 C74.13752059 299.94414283 85.81646244 297.88193188 97.51626587 295.42541504 C118.48931195 291.01029026 136.26792271 283.92489761 152.375 269.375 C153.22835938 268.60414063 154.08171875 267.83328125 154.9609375 267.0390625 C165.28404585 257.22416872 175.27623995 244.87627043 175.875 230.125 C175.66218524 225.094833 175.10093431 222.01005787 171.375 218.375 C166.23326073 214.95109582 160.55886207 213.95312677 154.5625 212.9375 C147.31282685 211.70535876 140.98897385 209.677463 134.375 206.375 C133.40175781 205.89417969 132.42851562 205.41335937 131.42578125 204.91796875 C121.25437849 199.45333276 113.50378155 191.63270183 105.5234375 183.4296875 C93.08023413 170.66091309 81.06851274 161.0130048 64.6640625 153.8359375 C61.375 152.375 61.375 152.375 60.375 151.375 C60.4609375 149.5546875 60.4609375 149.5546875 60.75 147.25 C60.84023438 146.50492188 60.93046875 145.75984375 61.0234375 144.9921875 C61.28940668 143.01219475 61.58498482 141.03614939 61.89453125 139.0625 C64.08039104 122.2864704 61.44392321 106.68900412 54.03515625 91.5 C52.51345134 89.22981743 52.51345134 89.22981743 50.0390625 88.24609375 C46.08388753 88.43747318 44.25202638 90.68718102 41.6875 93.4375 C41.16567139 93.9833374 40.64384277 94.5291748 40.10620117 95.09155273 C27.35584826 108.75278357 16.99576782 125.8549807 13.375 144.375 C12.385 144.375 11.395 144.375 10.375 144.375 C9.99021484 143.33666016 9.99021484 143.33666016 9.59765625 142.27734375 C4.32853796 128.81181923 -3.0773475 117.21332303 -12.625 106.375 C-13.37910156 105.49972656 -14.13320313 104.62445313 -14.91015625 103.72265625 C-17.10117706 101.22346441 -19.33691838 98.78543893 -21.625 96.375 C-22.31722656 95.64410156 -23.00945312 94.91320312 -23.72265625 94.16015625 C-24.39167969 93.50917969 -25.06070312 92.85820313 -25.75 92.1875 C-26.33007812 91.61644531 -26.91015625 91.04539062 -27.5078125 90.45703125 C-30.98463119 88.68013314 -32.9199478 89.25272278 -36.625 90.375 C-39.65564322 92.55011552 -42.17553158 95.12238163 -44.75 97.8125 C-45.48992187 98.57167725 -46.22984375 99.33085449 -46.9921875 100.11303711 C-60.59216605 114.3944801 -71.08028195 131.03781152 -79.25 148.9375 C-79.54455078 149.57671387 -79.83910156 150.21592773 -80.14257812 150.87451172 C-81.88536597 154.90690171 -82.95189213 158.74834965 -83.734375 163.07421875 C-86.67885025 177.96930213 -86.67885025 177.96930213 -92.13769531 182.42675781 C-98.31197454 186.11098176 -104.9362439 188.66524867 -111.6484375 191.19433594 C-115.54979953 192.74182501 -119.07321827 194.65365486 -122.625 196.875 C-123.19927734 197.23094238 -123.77355469 197.58688477 -124.36523438 197.95361328 C-126.13386875 199.07224954 -127.88174875 200.21722514 -129.625 201.375 C-130.29402344 201.81779297 -130.96304688 202.26058594 -131.65234375 202.71679688 C-142.33233729 209.85965494 -152.11118704 217.75473519 -161.625 226.375 C-162.21861328 226.90689941 -162.81222656 227.43879883 -163.42382812 227.98681641 C-169.21578812 233.17955332 -174.92096953 238.36600499 -179.91015625 244.35546875 C-181.16567094 245.83405895 -182.47329761 247.26882342 -183.80859375 248.67578125 C-196.14854967 261.68703078 -205.78980782 276.54472667 -214.41992188 292.20410156 C-215.49980981 294.14947504 -216.60951788 296.07261775 -217.734375 297.9921875 C-226.11839932 312.7816064 -231.8475742 329.10384904 -236.625 345.375 C-243.34692965 345.45183832 -250.06874371 345.50392623 -256.79101562 345.53979492 C-259.07198316 345.55476739 -261.35292247 345.57515257 -263.63378906 345.60131836 C-294.41540413 345.9452847 -294.41540413 345.9452847 -308.625 338.375 C-309.55828125 337.90449219 -310.4915625 337.43398438 -311.453125 336.94921875 C-329.16611426 327.43416426 -338.88569034 312.0951644 -344.625 293.375 C-347.47938373 277.80563422 -346.30191884 261.20164608 -337.3828125 247.7109375 C-328.27254873 235.60440921 -317.07679344 225.15574947 -301.625 222.375 C-299.16876334 222.25579213 -296.70909708 222.19977094 -294.25 222.1875 C-292.96351563 222.17332031 -291.67703125 222.15914062 -290.3515625 222.14453125 C-286.71354422 222.36952399 -284.03947835 223.18510603 -280.625 224.375 C-277.87434768 224.54357483 -277.87434768 224.54357483 -275.625 224.375 C-276.15089471 218.49328283 -276.85645043 212.65931682 -277.6875 206.8125 C-280.86970161 182.86224577 -274.68104341 158.9031892 -260.1875 139.5 C-259.02286926 138.10557665 -257.83491774 136.73031558 -256.625 135.375 C-255.66207031 134.27285156 -255.66207031 134.27285156 -254.6796875 133.1484375 C-240.0436258 117.43222364 -220.10743658 109.74766678 -199.04296875 108.09375 C-191.77339845 107.88678714 -185.51319466 109.13858331 -178.625 111.375 C-178.64594727 111.95878418 -178.66689453 112.54256836 -178.68847656 113.14404297 C-179.75201903 129.55038834 -179.75201903 129.55038834 -173.23828125 144.0546875 C-171.39156145 145.56604656 -169.95541414 145.97320446 -167.625 146.375 C-167.55023438 145.24707031 -167.47546875 144.11914062 -167.3984375 142.95703125 C-164.56409897 106.90160859 -148.17408055 77.15339717 -123.625 51.375 C-122.97144531 50.66859375 -122.31789062 49.9621875 -121.64453125 49.234375 C-90.58822943 16.65505625 -44.27330387 0.0135766 0 0 Z " fill="#FDFEFE" transform="translate(364.625,18.625)"/>
<path d="M0 0 C11.38978047 4.74144707 18.13236544 19.38907986 22.83203125 30.05078125 C28 43.10033445 28 43.10033445 28 49 C28.80824219 48.65066406 29.61648438 48.30132812 30.44921875 47.94140625 C32.05216797 47.25884766 32.05216797 47.25884766 33.6875 46.5625 C34.74324219 46.11003906 35.79898438 45.65757812 36.88671875 45.19140625 C43.56593189 42.63537111 50.05734962 42.78310375 57.125 42.75 C58.20265625 42.729375 59.2803125 42.70875 60.390625 42.6875 C70.82613446 42.63720839 79.75828487 44.89642216 89 49.6875 C89.67861084 50.03417725 90.35722168 50.38085449 91.05639648 50.73803711 C99.43526902 55.13008416 106.80823101 60.45361835 113.34765625 67.30078125 C116.37537198 70.41438962 119.70390218 73.17713158 123 76 C123.94746094 76.83660156 124.89492188 77.67320312 125.87109375 78.53515625 C140.96210995 91.7521709 158.20965394 103.33200683 178 108 C176.77055347 115.97277445 168.80565349 122.70390543 162.6875 127.3125 C148.62640607 136.84214872 133.83652638 140.9201362 117.36914062 144.07739258 C104.34065834 146.59334692 92.62808663 149.51842942 81 156 C80.37641602 156.34401855 79.75283203 156.68803711 79.11035156 157.04248047 C69.59678363 162.42113182 61.69293479 169.2880837 54 177 C53.26136719 177.72703125 52.52273438 178.4540625 51.76171875 179.203125 C47.57254231 183.60218002 44.24680825 188.4523223 41 193.5625 C40.62077393 194.15643555 40.24154785 194.75037109 39.85083008 195.36230469 C35.3538399 202.67451453 31.87457383 210.25085234 28 218 C-38.66 218 -105.32 218 -174 218 C-171.74441385 207.84986235 -171.74441385 207.84986235 -170.22265625 204.23046875 C-169.88008789 203.41497559 -169.53751953 202.59948242 -169.18457031 201.75927734 C-168.62914551 200.48624756 -168.62914551 200.48624756 -168.0625 199.1875 C-167.47033691 197.8255249 -167.47033691 197.8255249 -166.86621094 196.43603516 C-157.63279438 175.63386013 -145.85868992 155.4506646 -130 139 C-128.76229663 137.61173066 -127.53272463 136.21615709 -126.3125 134.8125 C-125.75046875 134.17054688 -125.1884375 133.52859375 -124.609375 132.8671875 C-123.56445561 131.65487812 -122.53231416 130.43139248 -121.515625 129.1953125 C-116.85587091 123.55851319 -111.73869327 118.06984916 -105 115 C-105 114.34 -105 113.68 -105 113 C-103.16151955 111.38445821 -101.32789626 109.9043248 -99.375 108.4375 C-98.785979 107.99204834 -98.19695801 107.54659668 -97.59008789 107.08764648 C-91.27819964 102.37524904 -84.7566519 98.04447473 -78 94 C-77.27458008 93.5654248 -76.54916016 93.13084961 -75.80175781 92.68310547 C-61.87381107 84.44976442 -47.34856427 78.11618809 -32 73 C-31.81207886 71.98184204 -31.81207886 71.98184204 -31.62036133 70.94311523 C-26.65028141 44.31205211 -19.69326646 19.69326646 0 0 Z " fill="#FDFEFE" transform="translate(331,146)"/>
<path d="M0 0 C6.00643573 3.28036808 10.68509182 7.50768453 13.20703125 13.97265625 C13.65056419 17.70411819 13.58390189 21.23884525 13.20703125 24.97265625 C10.9375 25.703125 10.9375 25.703125 8.20703125 25.97265625 C6.3203125 24.4609375 6.3203125 24.4609375 4.51953125 22.28515625 C-0.48728093 16.94143709 -5.47684301 14.35742715 -12.81640625 13.703125 C-18.54203956 13.62380262 -24.13854938 14.10274558 -29.79296875 14.97265625 C-29.88073335 11.46207227 -29.24772058 9.47897787 -26.8984375 6.86328125 C-18.98489687 -0.32846048 -10.66263487 -3.9220601 0 0 Z " fill="#13334B" transform="translate(424.79296875,231.02734375)"/>
<path d="M0 0 C0.66 0.33 1.32 0.66 2 1 C0.33333333 2.66666667 -1.33333333 4.33333333 -3 6 C-3.556875 6.598125 -4.11375 7.19625 -4.6875 7.8125 C-6 9 -6 9 -8 9 C-8.20367187 9.53109375 -8.40734375 10.0621875 -8.6171875 10.609375 C-10.59505609 14.02874104 -13.30326899 16.51337921 -16.125 19.25 C-16.68832031 19.80429688 -17.25164062 20.35859375 -17.83203125 20.9296875 C-19.21686028 22.29104485 -20.60783204 23.64614859 -22 25 C-22.66 24.67 -23.32 24.34 -24 24 C-16.48573927 15.49094352 -8.90728108 7.0801465 0 0 Z " fill="#D3E3E7" transform="translate(255,57)"/>
<path d="M0 0 C0 3.29222682 -0.41495585 4.02719653 -2.25 6.625 C-2.66765625 7.23601562 -3.0853125 7.84703125 -3.515625 8.4765625 C-5.27840279 10.28572918 -6.53955077 10.61095461 -9 11 C-8.06558465 9.72689688 -7.12732889 8.456612 -6.1875 7.1875 C-5.66542969 6.47980469 -5.14335937 5.77210937 -4.60546875 5.04296875 C-3.16871123 3.21468607 -1.68184237 1.60103312 0 0 Z " fill="#224255" transform="translate(316,120)"/>
<path d="M0 0 C0.99 0.33 1.98 0.66 3 1 C2.21625 1.598125 1.4325 2.19625 0.625 2.8125 C-2.14574323 4.91085249 -2.14574323 4.91085249 -4 8 C-4.66 8 -5.32 8 -6 8 C-4.55746343 4.63408134 -2.66735273 2.48952921 0 0 Z " fill="#294A59" transform="translate(195,251)"/>
<path d="M0 0 C0.66 0.99 1.32 1.98 2 3 C0.68 4.32 -0.64 5.64 -2 7 C-2.66 6.67 -3.32 6.34 -4 6 C-2.68 4.02 -1.36 2.04 0 0 Z " fill="#16384B" transform="translate(300,140)"/>
<path d="M0 0 C0.66 0.33 1.32 0.66 2 1 C0.90554162 1.86657116 -0.20097781 2.71792724 -1.3125 3.5625 C-1.92738281 4.03816406 -2.54226563 4.51382813 -3.17578125 5.00390625 C-3.77777344 5.33261719 -4.37976563 5.66132812 -5 6 C-5.99 5.67 -6.98 5.34 -8 5 C-6.71475739 4.13619741 -5.42157581 3.28419631 -4.125 2.4375 C-3.04605469 1.72400391 -3.04605469 1.72400391 -1.9453125 0.99609375 C-1.30335938 0.66738281 -0.66140625 0.33867188 0 0 Z " fill="#D3E3E7" transform="translate(282,39)"/>
</svg>
