<?xml version="1.0" encoding="UTF-8"?>
<!DOCTYPE svg PUBLIC "-//W3C//DTD SVG 1.1//EN" "http://www.w3.org/Graphics/SVG/1.1/DTD/svg11.dtd">
<svg xmlns="http://www.w3.org/2000/svg" version="1.1" width="2733px" height="1648px" style="shape-rendering:geometricPrecision; text-rendering:geometricPrecision; image-rendering:optimizeQuality; fill-rule:evenodd; clip-rule:evenodd" xmlns:xlink="http://www.w3.org/1999/xlink">
<g><path style="opacity:0.998" fill="#0b354f" d="M 1493.5,-0.5 C 1521.5,-0.5 1549.5,-0.5 1577.5,-0.5C 1715.48,7.43792 1844.48,45.6046 1964.5,114C 1999.74,135.114 2033.4,158.447 2065.5,184C 2095.73,214.229 2126.56,243.729 2158,272.5C 2161,276.5 2164,280.5 2167,284.5C 2176.35,293.354 2185.19,302.687 2193.5,312.5C 2208.81,341.133 2225.65,368.8 2244,395.5C 2297.96,486.22 2330.46,584.22 2341.5,689.5C 2407.72,700.732 2469.05,724.232 2525.5,760C 2544.05,772.376 2561.21,786.543 2577,802.5C 2584.05,810.545 2590.71,818.878 2597,827.5C 2604.67,833.833 2611.67,840.833 2618,848.5C 2632.42,868.345 2647.09,888.012 2662,907.5C 2682.9,937.301 2697.9,969.968 2707,1005.5C 2716.77,1041.34 2724.1,1077.68 2729,1114.5C 2739.13,1214.16 2722.13,1308.83 2678,1398.5C 2653.59,1442.59 2623.43,1482.42 2587.5,1518C 2577.47,1525.19 2568.47,1533.52 2560.5,1543C 2522.2,1575 2479.86,1600.67 2433.5,1620C 2394.06,1633.72 2353.73,1642.88 2312.5,1647.5C 1650.17,1647.5 987.833,1647.5 325.5,1647.5C 259.01,1639.52 200.01,1614.35 148.5,1572C 130.034,1555.87 111.868,1539.37 94,1522.5C 71.9305,1496.09 52.5972,1467.75 36,1437.5C 19.882,1398.48 8.21533,1358.14 1,1316.5C -9.64812,1237.72 3.01855,1163.05 39,1092.5C 58.812,1062.01 82.312,1034.51 109.5,1010C 131.318,991.846 153.985,974.846 177.5,959C 203.147,943.558 230.814,933.225 260.5,928C 267.757,926.29 275.09,925.124 282.5,924.5C 282.536,845.487 298.369,769.82 330,697.5C 344.004,668.801 361.004,642.134 381,617.5C 422.696,568.776 471.196,528.609 526.5,497C 595.14,461.258 668.14,445.592 745.5,450C 764.624,450.566 783.624,452.399 802.5,455.5C 803.5,455.167 804.5,454.833 805.5,454.5C 846.926,372.994 900.093,299.994 965,235.5C 1094.09,103.71 1250.93,26.8765 1435.5,5C 1454.96,2.82668 1474.29,0.993347 1493.5,-0.5 Z"/></g>
<g><path style="opacity:1" fill="#fcfdfd" d="M 2234.5,727.5 C 2233.53,729.607 2233.2,731.941 2233.5,734.5C 2230.61,734.194 2227.95,734.527 2225.5,735.5C 2184.95,734.877 2148.62,746.71 2116.5,771C 2106.92,783.581 2102.25,797.748 2102.5,813.5C 2127.6,806.122 2152.93,799.622 2178.5,794C 2271.82,777.328 2359.82,791.994 2442.5,838C 2539.88,900.831 2598.71,989.664 2619,1104.5C 2633.3,1206.33 2612.64,1300.33 2557,1386.5C 2487.03,1482.33 2392.53,1534.83 2273.5,1544C 2070.83,1544.67 1868.17,1544.67 1665.5,1544C 1663.1,1543.81 1660.77,1543.31 1658.5,1542.5C 1671.09,1507.31 1690.25,1476.31 1716,1449.5C 1748.83,1416.17 1786.33,1389.33 1828.5,1369C 1852.48,1359.17 1877.15,1351.5 1902.5,1346C 1940.24,1338.97 1977.57,1330.31 2014.5,1320C 2112.88,1290.9 2191.72,1234.73 2251,1151.5C 2270.67,1122.49 2280.67,1090.49 2281,1055.5C 2280.12,1030.89 2268.29,1014.06 2245.5,1005C 2221.96,997.424 2197.96,991.758 2173.5,988C 2121.65,975.249 2075.99,951.249 2036.5,916C 2009.86,890.362 1983.53,864.362 1957.5,838C 1912.73,795.758 1861.73,762.758 1804.5,739C 1803.33,737.833 1802.17,736.667 1801,735.5C 1800.33,731.5 1800.33,727.5 1801,723.5C 1804.45,701.593 1807.11,679.593 1809,657.5C 1812.71,594.374 1799.71,535.041 1770,479.5C 1760.9,471.174 1751.06,470.34 1740.5,477C 1683.1,529.239 1641.27,592.072 1615,665.5C 1610.73,678.586 1607.4,691.919 1605,705.5C 1600.6,706.467 1596.1,706.8 1591.5,706.5C 1574.23,657.951 1549.73,613.617 1518,573.5C 1491.99,540.817 1463.82,509.984 1433.5,481C 1415.2,473.46 1398.87,476.46 1384.5,490C 1371.6,502.728 1358.94,515.562 1346.5,528.5C 1331.59,541.408 1319.26,556.408 1309.5,573.5C 1299.2,585.417 1289.87,598.084 1281.5,611.5C 1278.58,615.601 1275.41,619.601 1272,623.5C 1269.01,627.808 1266.85,632.475 1265.5,637.5C 1245.39,670.05 1227.55,704.05 1212,739.5C 1209.13,747.776 1206.46,756.11 1204,764.5C 1199.6,789.817 1193.94,814.817 1187,839.5C 1180.5,852.667 1170.67,862.5 1157.5,869C 1128.87,883.318 1099.53,895.985 1069.5,907C 1013.59,937.925 961.259,973.925 912.5,1015C 887.394,1038.04 861.728,1060.37 835.5,1082C 813.703,1106.8 791.536,1131.3 769,1155.5C 739.983,1189.21 713.649,1224.88 690,1262.5C 662.622,1307.25 637.288,1353.25 614,1400.5C 593.687,1446.94 576.853,1494.61 563.5,1543.5C 490.835,1544.43 418.169,1544.6 345.5,1544C 326.975,1542.5 309.308,1537.83 292.5,1530C 269.86,1519.02 247.86,1507.02 226.5,1494C 181.821,1461.97 148.988,1420.47 128,1369.5C 109.895,1328.01 103.228,1284.68 108,1239.5C 112.135,1188.59 131.469,1144.59 166,1107.5C 189.76,1080.06 217.927,1058.56 250.5,1043C 279.326,1031.05 309.326,1026.72 340.5,1030C 353.632,1031.09 366.298,1034.09 378.5,1039C 385.826,1039.5 393.159,1039.67 400.5,1039.5C 396.667,1006.51 392.834,973.508 389,940.5C 382.683,821.034 422.516,720.2 508.5,638C 581.405,577.145 665.405,550.145 760.5,557C 775.429,559.566 790.096,563.066 804.5,567.5C 802.929,590.811 802.429,614.144 803,637.5C 808.301,660.907 816.468,683.24 827.5,704.5C 834.139,710.048 841.806,713.048 850.5,713.5C 855.129,630.858 876.629,552.858 915,479.5C 968.179,382.301 1039.35,300.468 1128.5,234C 1256.73,146.216 1398.9,103.049 1555,104.5C 1668.5,104.499 1775,131.666 1874.5,186C 1949.33,227.212 2015.83,279.378 2074,342.5C 2115.16,392.363 2150.83,446.029 2181,503.5C 2202.33,552.5 2218.67,603.167 2230,655.5C 2233.93,679.334 2235.43,703.334 2234.5,727.5 Z"/></g>
<g><path style="opacity:1" fill="#274658" d="M 1346.5,528.5 C 1346.73,533.675 1345.89,538.675 1344,543.5C 1339.02,551.958 1333.19,559.791 1326.5,567C 1320.96,569.782 1315.29,571.949 1309.5,573.5C 1319.26,556.408 1331.59,541.408 1346.5,528.5 Z"/></g>
<g><path style="opacity:1" fill="#1b3b4e" d="M 1281.5,611.5 C 1282.81,614.778 1284.64,617.778 1287,620.5C 1287.67,621.5 1287.67,622.5 1287,623.5C 1281.67,628.833 1276.33,634.167 1271,639.5C 1269.42,638.139 1267.58,637.472 1265.5,637.5C 1266.85,632.475 1269.01,627.808 1272,623.5C 1275.41,619.601 1278.58,615.601 1281.5,611.5 Z"/></g>
<g><path style="opacity:1" fill="#fcfdfd" d="M 1408.5,634.5 C 1431.49,645.649 1449.99,661.982 1464,683.5C 1489.65,724.465 1509.65,768.132 1524,814.5C 1524.94,822.484 1525.78,830.484 1526.5,838.5C 1543.06,830.554 1560.06,823.72 1577.5,818C 1590.36,815.211 1603.36,813.544 1616.5,813C 1680.31,805.894 1739.97,818.227 1795.5,850C 1818.73,862.78 1840.4,877.78 1860.5,895C 1910.7,946.047 1965.37,991.381 2024.5,1031C 2063.56,1055.69 2105.56,1073.53 2150.5,1084.5C 2149.17,1093.31 2146.34,1101.64 2142,1109.5C 2127.92,1130.91 2110.42,1149.08 2089.5,1164C 2040.8,1195.84 1987.8,1217.51 1930.5,1229C 1886.76,1236.45 1843.76,1246.79 1801.5,1260C 1743.4,1281.86 1692.4,1314.53 1648.5,1358C 1616.24,1388.08 1589.41,1422.25 1568,1460.5C 1553.45,1487.76 1539.28,1515.26 1525.5,1543C 1244.83,1543.83 964.166,1543.67 683.5,1542.5C 686.894,1527.82 690.394,1513.15 694,1498.5C 726.72,1414.36 769.72,1336.36 823,1264.5C 855.707,1227.46 888.04,1190.13 920,1152.5C 928.363,1144.08 937.197,1136.25 946.5,1129C 955.167,1120.33 963.833,1111.67 972.5,1103C 1047.68,1043.55 1130.01,995.549 1219.5,959C 1237.96,952.018 1256.46,945.185 1275,938.5C 1283.59,887.469 1296.26,837.469 1313,788.5C 1333.72,730.018 1365.55,678.685 1408.5,634.5 Z"/></g>
<g><path style="opacity:1" fill="#a9b8c1" d="M 2234.5,727.5 C 2234.5,730.167 2234.5,732.833 2234.5,735.5C 2231.5,735.5 2228.5,735.5 2225.5,735.5C 2227.95,734.527 2230.61,734.194 2233.5,734.5C 2233.2,731.941 2233.53,729.607 2234.5,727.5 Z"/></g>
<g><path style="opacity:1" fill="#14334b" d="M 1753.5,982.5 C 1796.41,981.369 1828.57,999.369 1850,1036.5C 1851.86,1040.42 1853.53,1044.42 1855,1048.5C 1855.67,1062.17 1855.67,1075.83 1855,1089.5C 1854.78,1090.94 1854.28,1092.27 1853.5,1093.5C 1846.8,1096.54 1839.8,1097.71 1832.5,1097C 1825.52,1090.36 1818.86,1083.36 1812.5,1076C 1791.65,1056.33 1766.82,1046.5 1738,1046.5C 1717.06,1047.02 1696.23,1048.69 1675.5,1051.5C 1674.21,1035.59 1679.87,1022.76 1692.5,1013C 1710.1,997.205 1730.43,987.039 1753.5,982.5 Z"/></g>
</svg>
