<svg id="svg" xmlns="http://www.w3.org/2000/svg" xmlns:xlink="http://www.w3.org/1999/xlink" width="400" height="400" viewBox="0, 0, 400,400"><g id="svgg"><path id="path0" d="M76.172 21.413 C 67.369 23.595,60.716 29.095,56.714 37.500 L 54.297 42.578 54.297 200.000 L 54.297 357.422 56.714 362.500 C 64.498 378.850,67.842 379.688,125.306 379.688 L 169.285 379.688 172.687 377.888 C 179.041 374.529,181.239 367.429,177.930 360.953 C 174.304 353.857,177.768 354.326,127.132 354.083 C 87.159 353.891,82.356 353.735,81.095 352.594 C 78.881 350.590,78.901 49.391,81.116 47.387 C 83.429 45.294,317.105 45.407,319.001 47.502 C 320.144 48.765,320.298 53.675,320.489 95.102 C 320.700 140.577,320.728 141.327,322.337 143.498 C 328.324 151.576,339.722 151.228,344.501 142.822 C 346.123 139.969,346.137 139.454,345.921 91.259 L 345.703 42.578 343.286 37.500 C 339.161 28.837,332.013 23.143,322.813 21.191 C 316.587 19.870,81.546 20.082,76.172 21.413 M127.734 104.994 C 118.373 109.157,118.118 123.026,127.313 127.888 L 130.715 129.688 187.500 129.688 L 244.285 129.688 247.687 127.888 C 256.015 123.485,256.710 111.552,248.966 105.905 C 246.148 103.850,132.232 102.994,127.734 104.994 M127.692 163.249 C 118.421 167.004,118.235 181.618,127.398 186.356 C 131.286 188.367,178.455 188.008,181.843 185.942 C 189.551 181.242,189.551 168.758,181.843 164.058 C 179.117 162.396,131.553 161.685,127.692 163.249 M266.016 188.649 C 190.503 202.567,160.853 296.468,214.811 350.810 C 267.258 403.630,356.815 379.991,376.225 308.203 C 394.515 240.556,334.953 175.943,266.016 188.649 M300.628 215.290 C 344.024 226.210,366.039 274.148,346.169 314.453 C 323.128 361.190,258.706 367.277,227.361 325.679 C 187.596 272.906,236.541 199.162,300.628 215.290 M277.937 233.924 C 261.002 239.968,263.315 264.176,281.085 266.867 C 291.190 268.397,300.000 260.541,300.000 250.000 C 300.000 237.987,289.004 229.974,277.937 233.924 M277.692 288.249 C 271.340 290.822,270.141 295.190,270.458 314.594 C 270.768 333.528,273.016 337.500,283.422 337.500 C 294.056 337.500,296.094 333.480,296.094 312.500 C 296.094 294.807,295.479 292.304,290.362 289.141 C 287.573 287.418,280.904 286.948,277.692 288.249 " stroke="none" fill="#000000" fill-rule="evenodd"></path></g></svg>