<svg id="svg" version="1.1" xmlns="http://www.w3.org/2000/svg" xmlns:xlink="http://www.w3.org/1999/xlink" width="400" height="400" viewBox="0, 0, 400,400"><g id="svgg"><path id="path0" d="M144.724 15.698 C 129.880 18.215,127.861 19.772,88.646 58.972 C 51.711 95.892,50.252 97.629,46.655 108.984 L 44.922 114.453 44.922 229.688 L 44.922 344.922 46.655 350.391 C 51.531 365.780,64.030 378.100,79.688 382.950 L 85.547 384.766 200.000 384.766 L 314.453 384.766 320.313 382.950 C 335.970 378.100,348.469 365.780,353.345 350.391 L 355.078 344.922 355.078 200.000 L 355.078 55.078 353.345 49.609 C 348.540 34.443,336.317 22.253,320.703 17.055 L 315.234 15.234 232.031 15.119 C 186.270 15.055,146.981 15.316,144.724 15.698 M312.720 47.928 C 316.437 49.486,320.155 52.899,322.105 56.544 L 323.828 59.766 323.828 200.000 L 323.828 340.234 322.105 343.456 C 320.155 347.101,316.437 350.514,312.720 352.072 C 308.988 353.636,91.012 353.636,87.280 352.072 C 83.563 350.514,79.845 347.101,77.895 343.456 L 76.172 340.234 76.172 229.688 L 76.172 119.141 77.877 116.016 C 80.245 111.675,142.599 49.603,146.094 48.107 C 149.988 46.440,308.763 46.270,312.720 47.928 M194.262 77.702 C 183.641 81.489,180.835 95.780,189.165 103.663 C 198.457 112.458,214.423 106.669,215.463 94.128 C 216.480 81.863,205.800 73.588,194.262 77.702 M195.066 126.530 C 191.445 127.692,187.423 131.254,185.870 134.675 C 183.598 139.676,183.616 186.075,185.891 190.535 C 191.453 201.435,204.879 202.490,212.845 192.652 L 215.234 189.701 215.452 163.796 C 215.668 138.168,215.651 137.853,213.890 134.385 C 210.597 127.903,201.987 124.310,195.066 126.530 M128.516 231.945 C 117.771 236.904,116.455 251.304,126.049 258.939 L 129.051 261.328 200.000 261.328 L 270.949 261.328 273.951 258.939 C 283.545 251.304,282.229 236.904,271.484 231.945 C 266.636 229.708,133.364 229.708,128.516 231.945 M128.516 293.295 C 116.429 298.690,116.793 317.091,129.087 322.228 C 133.932 324.253,267.060 324.003,271.484 321.961 C 283.565 316.385,283.153 297.668,270.848 293.018 C 267.288 291.674,131.557 291.937,128.516 293.295 " stroke="none" fill="#000000" fill-rule="evenodd"></path></g></svg>